<?xml version="1.0" encoding="utf-8"?>
<svg version="1.1" xmlns:xlink="http://www.w3.org/1999/xlink" width="111px" height="60px" xmlns="http://www.w3.org/2000/svg">
  <g transform="matrix(1 0 0 1 -145 -685 )">
    <path d="M 146 690  A 4 4 0 0 1 150 686 L 251 686  A 4 4 0 0 1 255 690 L 255 740  A 4 4 0 0 1 251 744 L 150 744  A 4 4 0 0 1 146 740 L 146 690  Z " fill-rule="nonzero" fill="#00ffff" stroke="none" />
    <path d="M 145.5 690  A 4.5 4.5 0 0 1 150 685.5 L 251 685.5  A 4.5 4.5 0 0 1 255.5 690 L 255.5 740  A 4.5 4.5 0 0 1 251 744.5 L 150 744.5  A 4.5 4.5 0 0 1 145.5 740 L 145.5 690  Z " stroke-width="1" stroke-dasharray="9,4" stroke="#797979" fill="none" stroke-dashoffset="0.5" />
  </g>
</svg>