<?xml version="1.0" encoding="utf-8"?>
<svg version="1.1" xmlns:xlink="http://www.w3.org/1999/xlink" width="10px" height="106px" preserveAspectRatio="xMidYMin meet" viewBox="1182 237  8 106" xmlns="http://www.w3.org/2000/svg">
  <path d="M 1186 239  L 1186 333  A 5 5 0 0 1 1181 338 L 473 338  A 5 5 0 0 0 468 343 L 468 393  " stroke-width="2" stroke="#0099cc" fill="none" />
  <path d="M 1186 237  A 3.5 3.5 0 0 0 1182.5 240.5 A 3.5 3.5 0 0 0 1186 244 A 3.5 3.5 0 0 0 1189.5 240.5 A 3.5 3.5 0 0 0 1186 237 Z M 460.4 392  L 468 399  L 475.6 392  L 460.4 392  Z " fill-rule="nonzero" fill="#0099cc" stroke="none" />
</svg>