<?xml version="1.0" encoding="utf-8"?>
<svg version="1.1" xmlns:xlink="http://www.w3.org/1999/xlink" width="198px" height="10px" preserveAspectRatio="xMinYMid meet" viewBox="1090 357  198 8" xmlns="http://www.w3.org/2000/svg">
  <path d="M 1283 239  L 1283 356  A 5 5 0 0 1 1278 361 L 1100 361  A 5 5 0 0 0 1095 366 L 1095 394  " stroke-width="2" stroke="#0099cc" fill="none" />
  <path d="M 1283 237  A 3.5 3.5 0 0 0 1279.5 240.5 A 3.5 3.5 0 0 0 1283 244 A 3.5 3.5 0 0 0 1286.5 240.5 A 3.5 3.5 0 0 0 1283 237 Z M 1087.4 393  L 1095 400  L 1102.6 393  L 1087.4 393  Z " fill-rule="nonzero" fill="#0099cc" stroke="none" />
</svg>