<?xml version="1.0" encoding="utf-8"?>
<svg version="1.1" xmlns:xlink="http://www.w3.org/1999/xlink" width="64px" height="14px" xmlns="http://www.w3.org/2000/svg">
  <defs>
    <mask fill="white" id="clip23">
      <path d="M 0 14  L 0 0  L 21.7872340425532 0  L 27.2340425531915 0  L 64 0  L 64 14  L 0 14  Z " fill-rule="evenodd" />
    </mask>
  </defs>
  <g transform="matrix(1 0 0 1 -364 -515 )">
    <path d="M 0 14  L 0 0  L 21.7872340425532 0  L 27.2340425531915 0  L 64 0  L 64 14  L 0 14  Z " fill-rule="nonzero" fill="#ffffff" stroke="none" fill-opacity="0" transform="matrix(1 0 0 1 364 515 )" />
    <path d="M 0 14  L 0 0  L 21.7872340425532 0  L 27.2340425531915 0  L 64 0  L 64 14  L 0 14  Z " stroke-width="2" stroke="#797979" fill="none" transform="matrix(1 0 0 1 364 515 )" mask="url(#clip23)" />
  </g>
</svg>