<?xml version="1.0" encoding="utf-8"?>
<svg version="1.1" xmlns:xlink="http://www.w3.org/1999/xlink" width="12px" height="12px" viewBox="235 321  12 12" xmlns="http://www.w3.org/2000/svg">
  <path d="M 241 321  C 244.36 321  247 323.64  247 327  C 247 330.36  244.36 333  241 333  C 237.64 333  235 330.36  235 327  C 235 323.64  237.64 321  241 321  Z " fill-rule="nonzero" fill="#f0f0f0" stroke="none" />
  <path d="M 241 321.5  C 244.08 321.5  246.5 323.92  246.5 327  C 246.5 330.08  244.08 332.5  241 332.5  C 237.92 332.5  235.5 330.08  235.5 327  C 235.5 323.92  237.92 321.5  241 321.5  Z " stroke-width="1" stroke="#797979" fill="none" />
  <path d="M 241 330  C 239.32 330  238 328.68  238 327  C 238 325.32  239.32 324  241 324  C 242.68 324  244 325.32  244 327  C 244 328.68  242.68 330  241 330  " fill-rule="nonzero" fill="#797979" stroke="none" />
</svg>