<?xml version="1.0" encoding="utf-8"?>
<svg version="1.1" xmlns:xlink="http://www.w3.org/1999/xlink" width="12px" height="12px" viewBox="227 321  12 12" xmlns="http://www.w3.org/2000/svg">
  <path d="M 233 321  C 236.36 321  239 323.64  239 327  C 239 330.36  236.36 333  233 333  C 229.64 333  227 330.36  227 327  C 227 323.64  229.64 321  233 321  Z " fill-rule="nonzero" fill="#ffffff" stroke="none" fill-opacity="0" />
  <path d="M 233 321.5  C 236.08 321.5  238.5 323.92  238.5 327  C 238.5 330.08  236.08 332.5  233 332.5  C 229.92 332.5  227.5 330.08  227.5 327  C 227.5 323.92  229.92 321.5  233 321.5  Z " stroke-width="1" stroke="#797979" fill="none" />
  <path d="M 233 330  C 231.32 330  230 328.68  230 327  C 230 325.32  231.32 324  233 324  C 234.68 324  236 325.32  236 327  C 236 328.68  234.68 330  233 330  " fill-rule="nonzero" fill="#797979" stroke="none" />
</svg>