<?xml version="1.0" encoding="utf-8"?>
<svg version="1.1" xmlns:xlink="http://www.w3.org/1999/xlink" width="12px" height="12px" viewBox="152 321  12 12" xmlns="http://www.w3.org/2000/svg">
  <path d="M 158 321  C 161.36 321  164 323.64  164 327  C 164 330.36  161.36 333  158 333  C 154.64 333  152 330.36  152 327  C 152 323.64  154.64 321  158 321  Z " fill-rule="nonzero" fill="#ffffff" stroke="none" fill-opacity="0" />
  <path d="M 158 321.5  C 161.08 321.5  163.5 323.92  163.5 327  C 163.5 330.08  161.08 332.5  158 332.5  C 154.92 332.5  152.5 330.08  152.5 327  C 152.5 323.92  154.92 321.5  158 321.5  Z " stroke-width="1" stroke="#797979" fill="none" />
  <path d="M 158 330  C 156.32 330  155 328.68  155 327  C 155 325.32  156.32 324  158 324  C 159.68 324  161 325.32  161 327  C 161 328.68  159.68 330  158 330  " fill-rule="nonzero" fill="#797979" stroke="none" />
</svg>