<?xml version="1.0" encoding="utf-8"?>
<svg version="1.1" xmlns:xlink="http://www.w3.org/1999/xlink" width="20px" height="20px" preserveAspectRatio="xMinYMid meet" viewBox="911 240  20 18" xmlns="http://www.w3.org/2000/svg">
  <path d="M 1198 208  L 1198 213  A 5 5 0 0 1 1193 218 L 926 218  A 5 5 0 0 0 921 223 L 921 248  " stroke-width="2" stroke="#0099cc" fill="none" />
  <path d="M 1198 206  A 3.5 3.5 0 0 0 1194.5 209.5 A 3.5 3.5 0 0 0 1198 213 A 3.5 3.5 0 0 0 1201.5 209.5 A 3.5 3.5 0 0 0 1198 206 Z M 913.4 247  L 921 254  L 928.6 247  L 913.4 247  Z " fill-rule="nonzero" fill="#0099cc" stroke="none" />
</svg>