<?xml version="1.0" encoding="utf-8"?>
<svg version="1.1" xmlns:xlink="http://www.w3.org/1999/xlink" width="8px" height="8px" xmlns="http://www.w3.org/2000/svg">
  <g transform="matrix(1 0 0 1 -665 -3597 )">
    <path d="M 669 3597  C 671.24 3597  673 3598.76  673 3601  C 673 3603.24  671.24 3605  669 3605  C 666.76 3605  665 3603.24  665 3601  C 665 3598.76  666.76 3597  669 3597  Z " fill-rule="nonzero" fill="#1890ff" stroke="none" />
    <path d="M 669 3597.5  C 670.96 3597.5  672.5 3599.04  672.5 3601  C 672.5 3602.96  670.96 3604.5  669 3604.5  C 667.04 3604.5  665.5 3602.96  665.5 3601  C 665.5 3599.04  667.04 3597.5  669 3597.5  Z " stroke-width="1" stroke="#ffffff" fill="none" />
  </g>
</svg>