<?xml version="1.0" encoding="utf-8"?>
<svg version="1.1" xmlns:xlink="http://www.w3.org/1999/xlink" width="218px" height="218px" xmlns="http://www.w3.org/2000/svg">
  <g transform="matrix(1 0 0 1 -1084 -3517 )">
    <path d="M 1193.50019265776 3517.50112862529  C 1253.19298605569 3517.77055510597  1301.5 3566.24392372776  1301.5 3626  C 1301.5 3685.92289535664  1252.92289535664 3734.5  1193 3734.5  C 1184.95013799609 3734.5  1176.92579796017 3733.60415288061  1169.07508804875 3731.82933709709  L 1193.48717954062 3626.11249931202  A 0.5 0.5 0 0 0 1193.5 3626 L 1193.50019217197 3517.50112862309  Z " fill-rule="nonzero" fill="#1890ff" stroke="none" />
    <path d="M 1193.50019265776 3517.50112862529  C 1253.19298605569 3517.77055510597  1301.5 3566.24392372776  1301.5 3626  C 1301.5 3685.92289535664  1252.92289535664 3734.5  1193 3734.5  C 1184.95013799609 3734.5  1176.92579796017 3733.60415288061  1169.07508804875 3731.82933709709  L 1193.48717954062 3626.11249931202  A 0.5 0.5 0 0 0 1193.5 3626 L 1193.50019217197 3517.50112862309  Z " stroke-width="1" stroke="#ffffff" fill="none" />
  </g>
</svg>