<?xml version="1.0" encoding="utf-8"?>
<svg version="1.1" xmlns:xlink="http://www.w3.org/1999/xlink" width="1111px" height="235px" xmlns="http://www.w3.org/2000/svg">
  <g transform="matrix(1 0 0 1 -183 -1209 )">
    <path d="M 1110 234  L 1.68872660885443 234  C 1.68872660885443 234  0 116.629923576919  0 117.153312992407  C 16.4146408066243 116.658741999582  61.0595232938289 114.274671207225  95.3567625133121 114.274671207225  C 154.180739388407 114.274671207225  149.396013996653 150.911930291353  197.806176783813 150.911930291353  C 246.216339570972 150.911930291353  228.531338743511 83.1402679953131  302.507226532785 83.7436219704516  C 355.983569146508 84.1797798166915  363.772220804045 107.05408413683  395.950098889396 107.296145667391  C 453.929712460064 107.732303513631  448.8635326335 -0.434842353794986  506.28023733455 0.00131549244483721  C 563.696942035601 0.437473338684661  533.907902144731 112.447649998971  599.723109691161 119.5085653621  C 636.312186216339 123.433985978257  651.229271261221 118.854328592741  699.920888483188 122.125512439538  C 748.612505705157 125.396696286335  747.76814240073 191.474609991637  804.621938232162 191.910767837877  C 861.475734063593 192.346925684116  849.277605414192 168.171845919862  905.945534763426 168.358244140937  C 967.179143544009 168.55966028368  970.117145899893 193.655399222835  1015.14985546934 194.527714915314  C 1052.90480141665 195.25905513742  1083.14924691921 149.603456752634  1107.46691008672 150.911930291353  C 1108.14240073026 151.697014414584  1110 234  1110 234  Z " fill-rule="nonzero" fill="#1890ff" stroke="none" transform="matrix(1 0 0 1 183 1209 )" />
    <path d="M 1.68872660885443 234  C 1.68872660885443 234  0 116.629923576919  0 117.153312992407  C 16.4146408066243 116.658741999582  61.0595232938289 114.274671207225  95.3567625133121 114.274671207225  C 154.180739388407 114.274671207225  149.396013996653 150.911930291353  197.806176783813 150.911930291353  C 246.216339570972 150.911930291353  228.531338743511 83.1402679953131  302.507226532785 83.7436219704516  C 355.983569146508 84.1797798166915  363.772220804045 107.05408413683  395.950098889396 107.296145667391  C 453.929712460064 107.732303513631  448.8635326335 -0.434842353794986  506.28023733455 0.00131549244483721  C 563.696942035601 0.437473338684661  533.907902144731 112.447649998971  599.723109691161 119.5085653621  C 636.312186216339 123.433985978257  651.229271261221 118.854328592741  699.920888483188 122.125512439538  C 748.612505705157 125.396696286335  747.76814240073 191.474609991637  804.621938232162 191.910767837877  C 861.475734063593 192.346925684116  849.277605414192 168.171845919862  905.945534763426 168.358244140937  C 967.179143544009 168.55966028368  970.117145899893 193.655399222835  1015.14985546934 194.527714915314  C 1052.90480141665 195.25905513742  1083.14924691921 149.603456752634  1107.46691008672 150.911930291353  C 1108.14240073026 151.697014414584  1110 234  1110 234  " stroke-width="1" stroke="#2db7f5" fill="none" transform="matrix(1 0 0 1 183 1209 )" />
  </g>
</svg>