<?xml version="1.0" encoding="utf-8"?>
<svg version="1.1" xmlns:xlink="http://www.w3.org/1999/xlink" width="1109px" height="198px" xmlns="http://www.w3.org/2000/svg">
  <g transform="matrix(1 0 0 1 -182 -1209 )">
    <path d="M 0 116.294105833418  C 0 116.294105833418  36.8479145473042 114.545342115747  95.6358087487283 114.545342115747  C 154.423702950153 114.545342115747  149.641912512716 151.269380186832  198.022380467955 151.269380186832  C 246.402848423194 151.269380186832  228.728695589147 83.3371939775565  302.659206510681 83.9419770565102  C 356.102746693795 84.3791679859281  363.88662078628 107.307652367726  396.044760935911 107.550287245064  C 453.988809766023 107.987478174482  448.925737538149 -0.43587232110058  506.307222787386 0.00131860831738778  C 563.688708036623 0.438509537735356  533.917940766247 112.713993426301  599.692777212615 119.791633268759  C 636.259409969481 123.726351633519  651.167344862665 119.135846874633  699.829094608342 122.414778845265  C 748.490844354018 125.693710815898  747.646998982706 191.928136622675  804.465920651068 192.365327552092  C 861.28484231943 192.80251848151  849.094196011734 168.570177639764  905.727365208545 168.757017363539  C 966.923413245352 168.95891058042  969.85961342828 194.114091269763  1014.86469989827 194.988473128598  C 1059.86978636826 195.862854987434  1078.24376381964 146.695134594743  1106 148.646234610326  " stroke-width="2" stroke="#1890ff" fill="none" transform="matrix(1 0 0 1 183 1210 )" />
  </g>
</svg>