<?xml version="1.0" encoding="utf-8"?>
<svg version="1.1" xmlns:xlink="http://www.w3.org/1999/xlink" width="10px" height="10px" xmlns="http://www.w3.org/2000/svg">
  <g transform="matrix(1 0 0 1 -681 -1204 )">
    <path d="M 686 1204  C 688.8 1204  691 1206.2  691 1209  C 691 1211.8  688.8 1214  686 1214  C 683.2 1214  681 1211.8  681 1209  C 681 1206.2  683.2 1204  686 1204  Z " fill-rule="nonzero" fill="#ffffff" stroke="none" />
    <path d="M 686 1204.5  C 688.52 1204.5  690.5 1206.48  690.5 1209  C 690.5 1211.52  688.52 1213.5  686 1213.5  C 683.48 1213.5  681.5 1211.52  681.5 1209  C 681.5 1206.48  683.48 1204.5  686 1204.5  Z " stroke-width="1" stroke="#1890ff" fill="none" />
  </g>
</svg>