<?xml version="1.0" encoding="utf-8"?>
<svg version="1.1" xmlns:xlink="http://www.w3.org/1999/xlink" width="33px" height="33px" xmlns="http://www.w3.org/2000/svg">
  <g transform="matrix(1 0 0 1 -1097 -4820 )">
    <path d="M 1113.5 4820  C 1122.74 4820  1130 4827.26  1130 4836.5  C 1130 4845.74  1122.74 4853  1113.5 4853  C 1104.26 4853  1097 4845.74  1097 4836.5  C 1097 4827.26  1104.26 4820  1113.5 4820  Z " fill-rule="nonzero" fill="#1890ff" stroke="none" fill-opacity="0.298039215686275" />
    <path d="M 1113.5 4820.5  C 1122.46 4820.5  1129.5 4827.54  1129.5 4836.5  C 1129.5 4845.46  1122.46 4852.5  1113.5 4852.5  C 1104.54 4852.5  1097.5 4845.46  1097.5 4836.5  C 1097.5 4827.54  1104.54 4820.5  1113.5 4820.5  Z " stroke-width="1" stroke="#1890ff" fill="none" />
  </g>
</svg>