<?xml version="1.0" encoding="utf-8"?>
<svg version="1.1" xmlns:xlink="http://www.w3.org/1999/xlink" width="15px" height="15px" xmlns="http://www.w3.org/2000/svg">
  <g transform="matrix(1 0 0 1 -930 -4917 )">
    <path d="M 937.5 4917  C 941.7 4917  945 4920.3  945 4924.5  C 945 4928.7  941.7 4932  937.5 4932  C 933.3 4932  930 4928.7  930 4924.5  C 930 4920.3  933.3 4917  937.5 4917  Z " fill-rule="nonzero" fill="#1890ff" stroke="none" fill-opacity="0.298039215686275" />
    <path d="M 937.5 4917.5  C 941.42 4917.5  944.5 4920.58  944.5 4924.5  C 944.5 4928.42  941.42 4931.5  937.5 4931.5  C 933.58 4931.5  930.5 4928.42  930.5 4924.5  C 930.5 4920.58  933.58 4917.5  937.5 4917.5  Z " stroke-width="1" stroke="#1890ff" fill="none" />
  </g>
</svg>