<?xml version="1.0" encoding="utf-8"?>
<svg version="1.1" xmlns:xlink="http://www.w3.org/1999/xlink" width="10px" height="196px" preserveAspectRatio="xMidYMin meet" viewBox="1319 529  8 196" xmlns="http://www.w3.org/2000/svg">
  <path d="M 381 534  L 1318 534  A 5 5 0 0 1 1323 539 L 1323 715  A 5 5 0 0 1 1318 720 L 722 720  A 5 5 0 0 0 717 725 L 717 736  " stroke-width="2" stroke="#0099cc" fill="none" />
  <path d="M 382.5 530.5  A 3.5 3.5 0 0 0 379 534 A 3.5 3.5 0 0 0 382.5 537.5 A 3.5 3.5 0 0 0 386 534 A 3.5 3.5 0 0 0 382.5 530.5 Z M 709.4 735  L 717 742  L 724.6 735  L 709.4 735  Z " fill-rule="nonzero" fill="#0099cc" stroke="none" />
</svg>